HIERARCHY
ROOT joint_Root
{
	OFFSET 0.0 0.0 0.0
	CHANNELS 6 Xposition Yposition Zposition Zrotation Xrotation Yrotation 
	JOINT Hips
	{
		OFFSET -17.1583 93.1646 452.98
		CHANNELS 6 Xposition Yposition Zposition Zrotation Xrotation Yrotation 
		JOINT Spine
		{
			OFFSET 15.7357 0.0 0.0
			CHANNELS 6 Xposition Yposition Zposition Zrotation Xrotation Yrotation 
			JOINT Chest
			{
				OFFSET 8.98455 -0.406207 0.0
				CHANNELS 6 Xposition Yposition Zposition Zrotation Xrotation Yrotation 
				JOINT Neck
				{
					OFFSET 16.3773 0.0 0.0
					CHANNELS 6 Xposition Yposition Zposition Zrotation Xrotation Yrotation 
					JOINT Head
					{
						OFFSET 6.45672 0.0 0.0
						CHANNELS 6 Xposition Yposition Zposition Zrotation Xrotation Yrotation 
						End Site
						{
							OFFSET 0.0 0.0 0.0
						}
					}
				}
				JOINT Shoulder_L
				{
					OFFSET 12.9942 -0.242716 4.98039
					CHANNELS 6 Xposition Yposition Zposition Zrotation Xrotation Yrotation 
					JOINT UpperArm_L
					{
						OFFSET 5.34809 0.0 0.0
						CHANNELS 6 Xposition Yposition Zposition Zrotation Xrotation Yrotation 
						JOINT LowerArm_L
						{
							OFFSET 24.3286 1.87007e-05 0.0
							CHANNELS 6 Xposition Yposition Zposition Zrotation Xrotation Yrotation 
							JOINT Hand_L
							{
								OFFSET 22.2916 0.0 0.0
								CHANNELS 6 Xposition Yposition Zposition Zrotation Xrotation Yrotation 
								End Site
								{
									OFFSET 0.0 0.0 0.0
								}
							}
						}
					}
				}
				JOINT Shoulder_R
				{
					OFFSET 12.9945 -0.242716 -4.98039
					CHANNELS 6 Xposition Yposition Zposition Zrotation Xrotation Yrotation 
					JOINT UpperArm_R
					{
						OFFSET -5.34813 0.0 0.0
						CHANNELS 6 Xposition Yposition Zposition Zrotation Xrotation Yrotation 
						JOINT LowerArm_R
						{
							OFFSET -24.3289 0.000322201 0.0
							CHANNELS 6 Xposition Yposition Zposition Zrotation Xrotation Yrotation 
							JOINT Hand_R
							{
								OFFSET -22.2915 -0.000108084 0.0
								CHANNELS 6 Xposition Yposition Zposition Zrotation Xrotation Yrotation 
								End Site
								{
									OFFSET 0.0 0.0 0.0
								}
							}
						}
					}
				}
			}
		}
		JOINT UpperLeg_L
		{
			OFFSET -2.19248 -6.46944 0.0
			CHANNELS 6 Xposition Yposition Zposition Zrotation Xrotation Yrotation 
			JOINT LowerLeg_L
			{
				OFFSET 39.0811 0.0 -1.23785e-05
				CHANNELS 6 Xposition Yposition Zposition Zrotation Xrotation Yrotation 
				JOINT Foot_L
				{
					OFFSET 40.9854 0.0 -1.26872e-05
					CHANNELS 6 Xposition Yposition Zposition Zrotation Xrotation Yrotation 
					JOINT Toes_L
					{
						OFFSET 11.7543 0.0 0.0
						CHANNELS 6 Xposition Yposition Zposition Zrotation Xrotation Yrotation 
						End Site
						{
							OFFSET 0.0 0.0 0.0
						}
					}
				}
			}
		}
		JOINT UpperLeg_R
		{
			OFFSET -2.19251 6.46944 0.0
			CHANNELS 6 Xposition Yposition Zposition Zrotation Xrotation Yrotation 
			JOINT LowerLeg_R
			{
				OFFSET -39.0811 -0.00228153 -0.0401928
				CHANNELS 6 Xposition Yposition Zposition Zrotation Xrotation Yrotation 
				JOINT Foot_R
				{
					OFFSET -40.9854 0.0 0.0
					CHANNELS 6 Xposition Yposition Zposition Zrotation Xrotation Yrotation 
					JOINT Toes_R
					{
						OFFSET -11.7543 0.0 0.0
						CHANNELS 6 Xposition Yposition Zposition Zrotation Xrotation Yrotation 
						End Site
						{
							OFFSET 0.0 0.0 0.0
						}
					}
				}
			}
		}
	}
}
MOTION
Frames:	4
Frame Time:	0.0333333
0.000000 0.000000 0.000000 0.000000 0.000000 -0.000000 -2.552120 91.865700 -0.598359 82.304900 -1.420310 2.521740 15.735700 0.000005 -0.000001 67.230300 85.797400 -62.263500 8.984550 -0.406207 -0.000000 0.160196 -3.581160 9.935050 16.377300 -0.000001 -0.000001 11.301200 4.692100 8.744060 6.456720 -0.000001 -0.000000 1.248540 9.034790 9.098330 12.994200 -0.242716 4.980390 -91.768300 5.618040 -72.496600 5.348090 -0.000007 -0.000001 -76.996800 31.719900 0.820578 24.328600 0.000019 0.000005 13.507000 26.698000 -28.130700 22.291600 -0.000001 0.000005 -3.428920 5.025300 6.776700 12.994500 -0.242716 -4.980390 87.964700 5.782990 -70.572900 -5.348130 -0.000001 -0.000004 -67.621800 10.160000 -10.341500 -24.328900 0.000322 -0.000009 18.331000 -19.813900 -135.653000 -22.291500 -0.000108 -0.000004 60.231100 5.669190 -17.259000 -2.192480 -6.469440 -0.000000 -170.704000 2.193680 -5.961750 39.081100 -0.000007 -0.000012 0.450786 -0.785861 29.840700 40.985400 -0.000006 -0.000013 1.042940 6.371130 -77.205100 11.754300 -0.000000 0.000003 0.000309 0.162243 -9.996590 -2.192510 6.469440 -0.000001 -168.905000 6.052260 -177.975000 -39.081100 -0.002282 -0.040193 0.097603 -0.344229 15.316100 -40.985400 0.000008 0.000006 4.255500 3.074770 -70.676600 -11.754300 -0.000006 -0.000006 -0.012857 0.291537 -4.722650
0.000000 0.000000 0.000000 0.000000 0.000000 -0.000000 -2.535160 91.882100 -0.609672 82.340800 -1.401960 2.482990 15.735700 0.000005 -0.000001 67.422600 85.831700 -62.489500 8.984550 -0.406207 -0.000000 0.104124 -3.529060 9.865760 16.377300 -0.000001 -0.000001 11.239400 4.622010 8.745480 6.456720 -0.000001 -0.000000 1.313170 8.939290 9.028350 12.994200 -0.242716 4.980390 -91.773000 5.636650 -72.507200 5.348090 -0.000007 -0.000001 -77.051000 31.373000 0.972546 24.328600 0.000019 0.000005 13.439100 26.603200 -28.084600 22.291600 -0.000001 0.000005 -3.417160 5.022160 6.844660 12.994500 -0.242716 -4.980390 87.965000 5.765510 -70.521100 -5.348130 -0.000001 -0.000004 -67.636800 10.035200 -10.244400 -24.328900 0.000322 -0.000009 18.188700 -19.695900 -135.728000 -22.291500 -0.000108 -0.000004 60.181100 5.669840 -17.357700 -2.192480 -6.469440 -0.000000 -170.746000 2.135220 -5.959590 39.081100 -0.000007 -0.000012 0.450321 -0.788202 29.741700 40.985400 -0.000006 -0.000013 1.064110 6.418630 -77.166100 11.754300 -0.000000 0.000003 0.000359 0.161348 -10.032900 -2.192510 6.469440 -0.000001 -168.956000 5.979110 -178.026000 -39.081100 -0.002282 -0.040193 0.095158 -0.335374 15.312800 -40.985400 0.000008 0.000006 4.047140 3.076170 -70.629500 -11.754300 -0.000006 -0.000006 -0.012641 0.290082 -4.782280
0.000000 0.000000 0.000000 0.000000 0.000000 -0.000000 -2.520950 91.885900 -0.626927 82.362800 -1.363350 2.440150 15.735700 0.000005 -0.000001 67.421800 85.848600 -62.521200 8.984550 -0.406207 -0.000000 0.070819 -3.515400 9.799850 16.377300 -0.000001 -0.000001 11.220300 4.564200 8.717300 6.456720 -0.000001 -0.000000 1.276860 8.851870 8.983950 12.994200 -0.242716 4.980390 -91.784700 5.659750 -72.466000 5.348090 -0.000007 -0.000001 -77.040100 31.296200 1.054930 24.328600 0.000019 0.000005 13.431700 26.666900 -28.018400 22.291600 -0.000001 0.000005 -3.386540 5.026720 6.745900 12.994500 -0.242716 -4.980390 87.972500 5.747230 -70.530600 -5.348130 -0.000001 -0.000004 -67.702700 9.895820 -10.155400 -24.328900 0.000322 -0.000009 17.929900 -19.464900 -135.842000 -22.291500 -0.000108 -0.000004 59.973300 5.671560 -17.643500 -2.192480 -6.469440 -0.000000 -170.774000 2.126210 -6.025120 39.081100 -0.000007 -0.000012 0.448560 -0.785633 29.725600 40.985400 -0.000006 -0.000013 1.082520 6.445380 -77.104700 11.754300 -0.000000 0.000003 0.000348 0.161542 -10.025000 -2.192510 6.469440 -0.000001 -168.968000 5.983290 -178.060000 -39.081100 -0.002282 -0.040193 0.096083 -0.340002 15.259200 -40.985400 0.000008 0.000006 4.181630 2.992440 -70.612700 -11.754300 -0.000006 -0.000006 -0.012747 0.290798 -4.752920
0.000000 0.000000 0.000000 0.000000 0.000000 -0.000000 -2.505200 91.900700 -0.646851 82.374300 -1.332820 2.411060 15.735700 0.000005 -0.000001 67.488800 85.862200 -62.611500 8.984550 -0.406207 -0.000000 0.047711 -3.495500 9.752670 16.377300 -0.000001 -0.000001 11.182800 4.501230 8.732140 6.456720 -0.000001 -0.000000 1.309950 8.776900 8.892640 12.994200 -0.242716 4.980390 -91.789300 5.672750 -72.462000 5.348090 -0.000007 -0.000001 -77.040200 31.229800 1.125470 24.328600 0.000019 0.000005 13.391600 26.653900 -27.955500 22.291600 -0.000001 0.000005 -3.436640 5.027420 6.730830 12.994500 -0.242716 -4.980390 87.984800 5.712170 -70.530900 -5.348130 -0.000001 -0.000004 -67.758200 9.792590 -10.115300 -24.328900 0.000322 -0.000009 17.809200 -19.356000 -135.894000 -22.291500 -0.000108 -0.000004 59.744800 5.671050 -17.547500 -2.192480 -6.469440 -0.000000 -170.792000 2.130640 -6.042230 39.081100 -0.000007 -0.000012 0.446681 -0.784388 29.661200 40.985400 -0.000006 -0.000013 1.090650 6.462730 -77.093300 11.754300 -0.000000 0.000003 0.000345 0.161595 -10.022900 -2.192510 6.469440 -0.000001 -168.995000 5.937780 -178.125000 -39.081100 -0.002282 -0.040193 0.093691 -0.330754 15.280300 -40.985400 0.000008 0.000006 3.917030 2.983530 -70.571300 -11.754300 -0.000006 -0.000006 -0.012698 0.290466 -4.766550
